<mxfile host="Electron" modified="2024-08-06T05:41:15.321Z" agent="Mozilla/5.0 (Windows NT 10.0; Win64; x64) AppleWebKit/537.36 (KHTML, like Gecko) draw.io/22.1.21 Chrome/120.0.6099.109 Electron/28.1.0 Safari/537.36" etag="rZRor_obcQN8avH_4Jb_" version="22.1.21" type="device">
  <diagram name="Seite-1" id="GEpf7sWne8RL3GP15E4q">
    <mxGraphModel dx="1687" dy="1040" grid="1" gridSize="10" guides="1" tooltips="1" connect="1" arrows="1" fold="1" page="1" pageScale="1" pageWidth="1169" pageHeight="827" math="0" shadow="0">
      <root>
        <mxCell id="0" />
        <mxCell id="1" parent="0" />
        <mxCell id="VadrGojm9dPPBqMYhkfN-1" value="&lt;div style=&quot;text-align: justify;&quot;&gt;&lt;span style=&quot;background-color: initial;&quot;&gt;&lt;b&gt;User Interface (GUI)&lt;/b&gt;&lt;/span&gt;&lt;/div&gt;&lt;div style=&quot;text-align: justify;&quot;&gt;&lt;br&gt;&lt;/div&gt;&lt;div style=&quot;text-align: justify;&quot;&gt;&lt;span style=&quot;background-color: initial;&quot;&gt;-&amp;nbsp;&lt;/span&gt;&lt;span style=&quot;background-color: initial;&quot;&gt;Refresh Table (Read())&lt;/span&gt;&lt;/div&gt;&lt;div style=&quot;text-align: justify;&quot;&gt;&lt;span style=&quot;background-color: initial;&quot;&gt;- Sum (Cells)&lt;/span&gt;&lt;br&gt;&lt;/div&gt;&lt;div style=&quot;text-align: justify;&quot;&gt;&lt;br&gt;&lt;/div&gt;" style="whiteSpace=wrap;html=1;aspect=fixed;fillColor=#d5e8d4;strokeColor=#82b366;" parent="1" vertex="1">
          <mxGeometry x="260" y="200" width="180" height="180" as="geometry" />
        </mxCell>
        <mxCell id="VadrGojm9dPPBqMYhkfN-3" value="&lt;div style=&quot;text-align: justify;&quot;&gt;&lt;span style=&quot;background-color: initial;&quot;&gt;&lt;b&gt;SQLite Server&lt;/b&gt;:&lt;/span&gt;&lt;/div&gt;&lt;div style=&quot;text-align: justify;&quot;&gt;&lt;br&gt;&lt;/div&gt;&lt;div style=&quot;text-align: justify;&quot;&gt;&lt;span style=&quot;background-color: initial;&quot;&gt;- User&amp;nbsp;&lt;/span&gt;&lt;/div&gt;&lt;div style=&quot;text-align: justify;&quot;&gt;&lt;span style=&quot;background-color: initial;&quot;&gt;- Days&lt;/span&gt;&lt;/div&gt;&lt;div style=&quot;text-align: justify;&quot;&gt;&lt;span style=&quot;background-color: initial;&quot;&gt;- Weeks&lt;/span&gt;&lt;/div&gt;&lt;div style=&quot;text-align: justify;&quot;&gt;&lt;span style=&quot;background-color: initial;&quot;&gt;&lt;br&gt;&lt;/span&gt;&lt;/div&gt;&lt;div style=&quot;text-align: justify;&quot;&gt;&lt;br&gt;&lt;/div&gt;" style="whiteSpace=wrap;html=1;aspect=fixed;fillColor=#fff2cc;strokeColor=#d6b656;" parent="1" vertex="1">
          <mxGeometry x="635" y="200" width="160" height="160" as="geometry" />
        </mxCell>
        <mxCell id="VadrGojm9dPPBqMYhkfN-4" value="Read (Days, Week)" style="text;html=1;align=center;verticalAlign=middle;resizable=0;points=[];autosize=1;strokeColor=none;fillColor=none;" parent="1" vertex="1">
          <mxGeometry x="505" y="350" width="130" height="30" as="geometry" />
        </mxCell>
        <mxCell id="VadrGojm9dPPBqMYhkfN-5" value="setComment(Table)&lt;br&gt;Login (Pin)&lt;br&gt;SetHO(Date)&lt;br&gt;SetUser(User Data)" style="text;html=1;align=left;verticalAlign=middle;resizable=0;points=[];autosize=1;strokeColor=none;fillColor=none;" parent="1" vertex="1">
          <mxGeometry x="410" y="440" width="130" height="70" as="geometry" />
        </mxCell>
        <mxCell id="VadrGojm9dPPBqMYhkfN-7" value="Days" style="swimlane;whiteSpace=wrap;html=1;fillColor=#f5f5f5;fontColor=#333333;strokeColor=#666666;" parent="1" vertex="1">
          <mxGeometry x="1100" y="330" width="200" height="120" as="geometry" />
        </mxCell>
        <mxCell id="VadrGojm9dPPBqMYhkfN-8" value="" style="shape=table;startSize=0;container=1;collapsible=0;childLayout=tableLayout;fontSize=16;" parent="VadrGojm9dPPBqMYhkfN-7" vertex="1">
          <mxGeometry x="8.75" y="40" width="172.5" height="55" as="geometry" />
        </mxCell>
        <mxCell id="VadrGojm9dPPBqMYhkfN-9" value="" style="shape=tableRow;horizontal=0;startSize=0;swimlaneHead=0;swimlaneBody=0;strokeColor=inherit;top=0;left=0;bottom=0;right=0;collapsible=0;dropTarget=0;fillColor=none;points=[[0,0.5],[1,0.5]];portConstraint=eastwest;fontSize=16;" parent="VadrGojm9dPPBqMYhkfN-8" vertex="1">
          <mxGeometry width="172.5" height="19" as="geometry" />
        </mxCell>
        <mxCell id="VadrGojm9dPPBqMYhkfN-10" value="&lt;font style=&quot;font-size: 10px;&quot;&gt;Date&lt;/font&gt;" style="shape=partialRectangle;html=1;whiteSpace=wrap;connectable=0;strokeColor=inherit;overflow=hidden;fillColor=none;top=0;left=0;bottom=0;right=0;pointerEvents=1;fontSize=16;" parent="VadrGojm9dPPBqMYhkfN-9" vertex="1">
          <mxGeometry width="37" height="19" as="geometry">
            <mxRectangle width="37" height="19" as="alternateBounds" />
          </mxGeometry>
        </mxCell>
        <mxCell id="VadrGojm9dPPBqMYhkfN-11" value="&lt;font style=&quot;font-size: 10px;&quot;&gt;Start&lt;/font&gt;" style="shape=partialRectangle;html=1;whiteSpace=wrap;connectable=0;strokeColor=inherit;overflow=hidden;fillColor=none;top=0;left=0;bottom=0;right=0;pointerEvents=1;fontSize=16;" parent="VadrGojm9dPPBqMYhkfN-9" vertex="1">
          <mxGeometry x="37" width="37" height="19" as="geometry">
            <mxRectangle width="37" height="19" as="alternateBounds" />
          </mxGeometry>
        </mxCell>
        <mxCell id="VadrGojm9dPPBqMYhkfN-12" value="&lt;font style=&quot;font-size: 10px;&quot;&gt;End&lt;/font&gt;" style="shape=partialRectangle;html=1;whiteSpace=wrap;connectable=0;strokeColor=inherit;overflow=hidden;fillColor=none;top=0;left=0;bottom=0;right=0;pointerEvents=1;fontSize=16;" parent="VadrGojm9dPPBqMYhkfN-9" vertex="1">
          <mxGeometry x="74" width="36" height="19" as="geometry">
            <mxRectangle width="36" height="19" as="alternateBounds" />
          </mxGeometry>
        </mxCell>
        <mxCell id="VadrGojm9dPPBqMYhkfN-35" value="&lt;font style=&quot;font-size: 10px;&quot;&gt;Work Time&lt;/font&gt;" style="shape=partialRectangle;html=1;whiteSpace=wrap;connectable=0;strokeColor=inherit;overflow=hidden;fillColor=none;top=0;left=0;bottom=0;right=0;pointerEvents=1;fontSize=16;" parent="VadrGojm9dPPBqMYhkfN-9" vertex="1">
          <mxGeometry x="110" width="63" height="19" as="geometry">
            <mxRectangle width="63" height="19" as="alternateBounds" />
          </mxGeometry>
        </mxCell>
        <mxCell id="VadrGojm9dPPBqMYhkfN-22" style="shape=tableRow;horizontal=0;startSize=0;swimlaneHead=0;swimlaneBody=0;strokeColor=inherit;top=0;left=0;bottom=0;right=0;collapsible=0;dropTarget=0;fillColor=none;points=[[0,0.5],[1,0.5]];portConstraint=eastwest;fontSize=16;" parent="VadrGojm9dPPBqMYhkfN-8" vertex="1">
          <mxGeometry y="19" width="172.5" height="17" as="geometry" />
        </mxCell>
        <mxCell id="VadrGojm9dPPBqMYhkfN-23" style="shape=partialRectangle;html=1;whiteSpace=wrap;connectable=0;strokeColor=inherit;overflow=hidden;fillColor=none;top=0;left=0;bottom=0;right=0;pointerEvents=1;fontSize=16;" parent="VadrGojm9dPPBqMYhkfN-22" vertex="1">
          <mxGeometry width="37" height="17" as="geometry">
            <mxRectangle width="37" height="17" as="alternateBounds" />
          </mxGeometry>
        </mxCell>
        <mxCell id="VadrGojm9dPPBqMYhkfN-24" style="shape=partialRectangle;html=1;whiteSpace=wrap;connectable=0;strokeColor=inherit;overflow=hidden;fillColor=none;top=0;left=0;bottom=0;right=0;pointerEvents=1;fontSize=16;" parent="VadrGojm9dPPBqMYhkfN-22" vertex="1">
          <mxGeometry x="37" width="37" height="17" as="geometry">
            <mxRectangle width="37" height="17" as="alternateBounds" />
          </mxGeometry>
        </mxCell>
        <mxCell id="VadrGojm9dPPBqMYhkfN-25" style="shape=partialRectangle;html=1;whiteSpace=wrap;connectable=0;strokeColor=inherit;overflow=hidden;fillColor=none;top=0;left=0;bottom=0;right=0;pointerEvents=1;fontSize=16;" parent="VadrGojm9dPPBqMYhkfN-22" vertex="1">
          <mxGeometry x="74" width="36" height="17" as="geometry">
            <mxRectangle width="36" height="17" as="alternateBounds" />
          </mxGeometry>
        </mxCell>
        <mxCell id="VadrGojm9dPPBqMYhkfN-36" style="shape=partialRectangle;html=1;whiteSpace=wrap;connectable=0;strokeColor=inherit;overflow=hidden;fillColor=none;top=0;left=0;bottom=0;right=0;pointerEvents=1;fontSize=16;" parent="VadrGojm9dPPBqMYhkfN-22" vertex="1">
          <mxGeometry x="110" width="63" height="17" as="geometry">
            <mxRectangle width="63" height="17" as="alternateBounds" />
          </mxGeometry>
        </mxCell>
        <mxCell id="VadrGojm9dPPBqMYhkfN-26" style="shape=tableRow;horizontal=0;startSize=0;swimlaneHead=0;swimlaneBody=0;strokeColor=inherit;top=0;left=0;bottom=0;right=0;collapsible=0;dropTarget=0;fillColor=none;points=[[0,0.5],[1,0.5]];portConstraint=eastwest;fontSize=16;" parent="VadrGojm9dPPBqMYhkfN-8" vertex="1">
          <mxGeometry y="36" width="172.5" height="19" as="geometry" />
        </mxCell>
        <mxCell id="VadrGojm9dPPBqMYhkfN-27" style="shape=partialRectangle;html=1;whiteSpace=wrap;connectable=0;strokeColor=inherit;overflow=hidden;fillColor=none;top=0;left=0;bottom=0;right=0;pointerEvents=1;fontSize=16;" parent="VadrGojm9dPPBqMYhkfN-26" vertex="1">
          <mxGeometry width="37" height="19" as="geometry">
            <mxRectangle width="37" height="19" as="alternateBounds" />
          </mxGeometry>
        </mxCell>
        <mxCell id="VadrGojm9dPPBqMYhkfN-28" style="shape=partialRectangle;html=1;whiteSpace=wrap;connectable=0;strokeColor=inherit;overflow=hidden;fillColor=none;top=0;left=0;bottom=0;right=0;pointerEvents=1;fontSize=16;" parent="VadrGojm9dPPBqMYhkfN-26" vertex="1">
          <mxGeometry x="37" width="37" height="19" as="geometry">
            <mxRectangle width="37" height="19" as="alternateBounds" />
          </mxGeometry>
        </mxCell>
        <mxCell id="VadrGojm9dPPBqMYhkfN-29" style="shape=partialRectangle;html=1;whiteSpace=wrap;connectable=0;strokeColor=inherit;overflow=hidden;fillColor=none;top=0;left=0;bottom=0;right=0;pointerEvents=1;fontSize=16;" parent="VadrGojm9dPPBqMYhkfN-26" vertex="1">
          <mxGeometry x="74" width="36" height="19" as="geometry">
            <mxRectangle width="36" height="19" as="alternateBounds" />
          </mxGeometry>
        </mxCell>
        <mxCell id="VadrGojm9dPPBqMYhkfN-38" style="shape=partialRectangle;html=1;whiteSpace=wrap;connectable=0;strokeColor=inherit;overflow=hidden;fillColor=none;top=0;left=0;bottom=0;right=0;pointerEvents=1;fontSize=16;" parent="VadrGojm9dPPBqMYhkfN-26" vertex="1">
          <mxGeometry x="110" width="63" height="19" as="geometry">
            <mxRectangle width="63" height="19" as="alternateBounds" />
          </mxGeometry>
        </mxCell>
        <mxCell id="VadrGojm9dPPBqMYhkfN-43" value="Weeks" style="swimlane;whiteSpace=wrap;html=1;fillColor=#f5f5f5;fontColor=#333333;strokeColor=#666666;" parent="1" vertex="1">
          <mxGeometry x="850" y="330" width="200" height="120" as="geometry" />
        </mxCell>
        <mxCell id="VadrGojm9dPPBqMYhkfN-44" value="" style="shape=table;startSize=0;container=1;collapsible=0;childLayout=tableLayout;fontSize=16;" parent="VadrGojm9dPPBqMYhkfN-43" vertex="1">
          <mxGeometry x="15" y="40" width="165" height="55" as="geometry" />
        </mxCell>
        <mxCell id="VadrGojm9dPPBqMYhkfN-45" value="" style="shape=tableRow;horizontal=0;startSize=0;swimlaneHead=0;swimlaneBody=0;strokeColor=inherit;top=0;left=0;bottom=0;right=0;collapsible=0;dropTarget=0;fillColor=none;points=[[0,0.5],[1,0.5]];portConstraint=eastwest;fontSize=16;" parent="VadrGojm9dPPBqMYhkfN-44" vertex="1">
          <mxGeometry width="165" height="19" as="geometry" />
        </mxCell>
        <mxCell id="VadrGojm9dPPBqMYhkfN-46" value="&lt;font style=&quot;font-size: 10px;&quot;&gt;Week&lt;/font&gt;" style="shape=partialRectangle;html=1;whiteSpace=wrap;connectable=0;strokeColor=inherit;overflow=hidden;fillColor=none;top=0;left=0;bottom=0;right=0;pointerEvents=1;fontSize=16;" parent="VadrGojm9dPPBqMYhkfN-45" vertex="1">
          <mxGeometry width="37" height="19" as="geometry">
            <mxRectangle width="37" height="19" as="alternateBounds" />
          </mxGeometry>
        </mxCell>
        <mxCell id="VadrGojm9dPPBqMYhkfN-47" value="&lt;font style=&quot;font-size: 10px;&quot;&gt;Work Time&lt;/font&gt;" style="shape=partialRectangle;html=1;whiteSpace=wrap;connectable=0;strokeColor=inherit;overflow=hidden;fillColor=none;top=0;left=0;bottom=0;right=0;pointerEvents=1;fontSize=16;" parent="VadrGojm9dPPBqMYhkfN-45" vertex="1">
          <mxGeometry x="37" width="37" height="19" as="geometry">
            <mxRectangle width="37" height="19" as="alternateBounds" />
          </mxGeometry>
        </mxCell>
        <mxCell id="VadrGojm9dPPBqMYhkfN-48" value="&lt;font style=&quot;font-size: 10px;&quot;&gt;Pr Report Time&lt;/font&gt;" style="shape=partialRectangle;html=1;whiteSpace=wrap;connectable=0;strokeColor=inherit;overflow=hidden;fillColor=none;top=0;left=0;bottom=0;right=0;pointerEvents=1;fontSize=16;" parent="VadrGojm9dPPBqMYhkfN-45" vertex="1">
          <mxGeometry x="74" width="91" height="19" as="geometry">
            <mxRectangle width="91" height="19" as="alternateBounds" />
          </mxGeometry>
        </mxCell>
        <mxCell id="VadrGojm9dPPBqMYhkfN-52" style="shape=tableRow;horizontal=0;startSize=0;swimlaneHead=0;swimlaneBody=0;strokeColor=inherit;top=0;left=0;bottom=0;right=0;collapsible=0;dropTarget=0;fillColor=none;points=[[0,0.5],[1,0.5]];portConstraint=eastwest;fontSize=16;" parent="VadrGojm9dPPBqMYhkfN-44" vertex="1">
          <mxGeometry y="19" width="165" height="17" as="geometry" />
        </mxCell>
        <mxCell id="VadrGojm9dPPBqMYhkfN-53" style="shape=partialRectangle;html=1;whiteSpace=wrap;connectable=0;strokeColor=inherit;overflow=hidden;fillColor=none;top=0;left=0;bottom=0;right=0;pointerEvents=1;fontSize=16;" parent="VadrGojm9dPPBqMYhkfN-52" vertex="1">
          <mxGeometry width="37" height="17" as="geometry">
            <mxRectangle width="37" height="17" as="alternateBounds" />
          </mxGeometry>
        </mxCell>
        <mxCell id="VadrGojm9dPPBqMYhkfN-54" style="shape=partialRectangle;html=1;whiteSpace=wrap;connectable=0;strokeColor=inherit;overflow=hidden;fillColor=none;top=0;left=0;bottom=0;right=0;pointerEvents=1;fontSize=16;" parent="VadrGojm9dPPBqMYhkfN-52" vertex="1">
          <mxGeometry x="37" width="37" height="17" as="geometry">
            <mxRectangle width="37" height="17" as="alternateBounds" />
          </mxGeometry>
        </mxCell>
        <mxCell id="VadrGojm9dPPBqMYhkfN-55" style="shape=partialRectangle;html=1;whiteSpace=wrap;connectable=0;strokeColor=inherit;overflow=hidden;fillColor=none;top=0;left=0;bottom=0;right=0;pointerEvents=1;fontSize=16;" parent="VadrGojm9dPPBqMYhkfN-52" vertex="1">
          <mxGeometry x="74" width="91" height="17" as="geometry">
            <mxRectangle width="91" height="17" as="alternateBounds" />
          </mxGeometry>
        </mxCell>
        <mxCell id="VadrGojm9dPPBqMYhkfN-59" style="shape=tableRow;horizontal=0;startSize=0;swimlaneHead=0;swimlaneBody=0;strokeColor=inherit;top=0;left=0;bottom=0;right=0;collapsible=0;dropTarget=0;fillColor=none;points=[[0,0.5],[1,0.5]];portConstraint=eastwest;fontSize=16;" parent="VadrGojm9dPPBqMYhkfN-44" vertex="1">
          <mxGeometry y="36" width="165" height="19" as="geometry" />
        </mxCell>
        <mxCell id="VadrGojm9dPPBqMYhkfN-60" style="shape=partialRectangle;html=1;whiteSpace=wrap;connectable=0;strokeColor=inherit;overflow=hidden;fillColor=none;top=0;left=0;bottom=0;right=0;pointerEvents=1;fontSize=16;" parent="VadrGojm9dPPBqMYhkfN-59" vertex="1">
          <mxGeometry width="37" height="19" as="geometry">
            <mxRectangle width="37" height="19" as="alternateBounds" />
          </mxGeometry>
        </mxCell>
        <mxCell id="VadrGojm9dPPBqMYhkfN-61" style="shape=partialRectangle;html=1;whiteSpace=wrap;connectable=0;strokeColor=inherit;overflow=hidden;fillColor=none;top=0;left=0;bottom=0;right=0;pointerEvents=1;fontSize=16;" parent="VadrGojm9dPPBqMYhkfN-59" vertex="1">
          <mxGeometry x="37" width="37" height="19" as="geometry">
            <mxRectangle width="37" height="19" as="alternateBounds" />
          </mxGeometry>
        </mxCell>
        <mxCell id="VadrGojm9dPPBqMYhkfN-62" style="shape=partialRectangle;html=1;whiteSpace=wrap;connectable=0;strokeColor=inherit;overflow=hidden;fillColor=none;top=0;left=0;bottom=0;right=0;pointerEvents=1;fontSize=16;" parent="VadrGojm9dPPBqMYhkfN-59" vertex="1">
          <mxGeometry x="74" width="91" height="19" as="geometry">
            <mxRectangle width="91" height="19" as="alternateBounds" />
          </mxGeometry>
        </mxCell>
        <mxCell id="VadrGojm9dPPBqMYhkfN-66" value="" style="endArrow=none;startArrow=none;html=1;rounded=0;exitX=1;exitY=0.5;exitDx=0;exitDy=0;startFill=0;endFill=0;entryX=0;entryY=0.5;entryDx=0;entryDy=0;" parent="1" source="VadrGojm9dPPBqMYhkfN-43" edge="1" target="VadrGojm9dPPBqMYhkfN-7">
          <mxGeometry width="50" height="50" relative="1" as="geometry">
            <mxPoint x="800" y="320" as="sourcePoint" />
            <mxPoint x="850" y="270" as="targetPoint" />
          </mxGeometry>
        </mxCell>
        <mxCell id="VadrGojm9dPPBqMYhkfN-67" value="" style="endArrow=none;startArrow=none;html=1;rounded=0;exitX=1;exitY=0.5;exitDx=0;exitDy=0;entryX=0;entryY=0.5;entryDx=0;entryDy=0;startFill=0;endFill=0;" parent="1" source="VadrGojm9dPPBqMYhkfN-3" target="VadrGojm9dPPBqMYhkfN-43" edge="1">
          <mxGeometry width="50" height="50" relative="1" as="geometry">
            <mxPoint x="790" y="320" as="sourcePoint" />
            <mxPoint x="850" y="350" as="targetPoint" />
          </mxGeometry>
        </mxCell>
        <mxCell id="VadrGojm9dPPBqMYhkfN-68" value="&lt;div style=&quot;text-align: justify;&quot;&gt;&lt;span style=&quot;background-color: initial;&quot;&gt;&lt;b&gt;Python Lib Server:&lt;/b&gt;&lt;/span&gt;&lt;/div&gt;&lt;div style=&quot;text-align: justify;&quot;&gt;&lt;br&gt;&lt;/div&gt;&lt;div style=&quot;text-align: justify;&quot;&gt;&lt;span style=&quot;background-color: initial;&quot;&gt;- libSAP&lt;/span&gt;&lt;/div&gt;&lt;div style=&quot;text-align: justify;&quot;&gt;&lt;span style=&quot;background-color: initial;&quot;&gt;- libPrReport&lt;/span&gt;&lt;/div&gt;&lt;div style=&quot;text-align: justify;&quot;&gt;&lt;span style=&quot;background-color: initial;&quot;&gt;- libOutlook&lt;/span&gt;&lt;/div&gt;" style="whiteSpace=wrap;html=1;aspect=fixed;fillColor=#e1d5e7;strokeColor=#9673a6;align=center;" parent="1" vertex="1">
          <mxGeometry x="635" y="470" width="160" height="160" as="geometry" />
        </mxCell>
        <mxCell id="VadrGojm9dPPBqMYhkfN-69" value="" style="shape=flexArrow;endArrow=classic;startArrow=classic;html=1;rounded=0;entryX=0.5;entryY=1;entryDx=0;entryDy=0;exitX=0.5;exitY=0;exitDx=0;exitDy=0;" parent="1" source="VadrGojm9dPPBqMYhkfN-68" target="VadrGojm9dPPBqMYhkfN-3" edge="1">
          <mxGeometry width="100" height="100" relative="1" as="geometry">
            <mxPoint x="480" y="414" as="sourcePoint" />
            <mxPoint x="650" y="414" as="targetPoint" />
          </mxGeometry>
        </mxCell>
        <mxCell id="VadrGojm9dPPBqMYhkfN-70" value="&lt;b&gt;libSAP&lt;/b&gt;" style="swimlane;fontStyle=0;childLayout=stackLayout;horizontal=1;startSize=30;horizontalStack=0;resizeParent=1;resizeParentMax=0;resizeLast=0;collapsible=1;marginBottom=0;whiteSpace=wrap;html=1;fillColor=#f5f5f5;fontColor=#333333;strokeColor=#666666;" parent="1" vertex="1">
          <mxGeometry x="480" y="670" width="140" height="120" as="geometry" />
        </mxCell>
        <mxCell id="VadrGojm9dPPBqMYhkfN-71" value="Item 1" style="text;strokeColor=none;fillColor=none;align=left;verticalAlign=middle;spacingLeft=4;spacingRight=4;overflow=hidden;points=[[0,0.5],[1,0.5]];portConstraint=eastwest;rotatable=0;whiteSpace=wrap;html=1;" parent="VadrGojm9dPPBqMYhkfN-70" vertex="1">
          <mxGeometry y="30" width="140" height="30" as="geometry" />
        </mxCell>
        <mxCell id="VadrGojm9dPPBqMYhkfN-72" value="Item 2" style="text;strokeColor=none;fillColor=none;align=left;verticalAlign=middle;spacingLeft=4;spacingRight=4;overflow=hidden;points=[[0,0.5],[1,0.5]];portConstraint=eastwest;rotatable=0;whiteSpace=wrap;html=1;" parent="VadrGojm9dPPBqMYhkfN-70" vertex="1">
          <mxGeometry y="60" width="140" height="30" as="geometry" />
        </mxCell>
        <mxCell id="VadrGojm9dPPBqMYhkfN-73" value="Item 3" style="text;strokeColor=none;fillColor=none;align=left;verticalAlign=middle;spacingLeft=4;spacingRight=4;overflow=hidden;points=[[0,0.5],[1,0.5]];portConstraint=eastwest;rotatable=0;whiteSpace=wrap;html=1;" parent="VadrGojm9dPPBqMYhkfN-70" vertex="1">
          <mxGeometry y="90" width="140" height="30" as="geometry" />
        </mxCell>
        <mxCell id="VadrGojm9dPPBqMYhkfN-74" value="&lt;b&gt;libPrReport&lt;/b&gt;" style="swimlane;fontStyle=0;childLayout=stackLayout;horizontal=1;startSize=30;horizontalStack=0;resizeParent=1;resizeParentMax=0;resizeLast=0;collapsible=1;marginBottom=0;whiteSpace=wrap;html=1;fillColor=#f5f5f5;fontColor=#333333;strokeColor=#666666;" parent="1" vertex="1">
          <mxGeometry x="645" y="670" width="140" height="120" as="geometry" />
        </mxCell>
        <mxCell id="VadrGojm9dPPBqMYhkfN-75" value="Item 1" style="text;strokeColor=none;fillColor=none;align=left;verticalAlign=middle;spacingLeft=4;spacingRight=4;overflow=hidden;points=[[0,0.5],[1,0.5]];portConstraint=eastwest;rotatable=0;whiteSpace=wrap;html=1;" parent="VadrGojm9dPPBqMYhkfN-74" vertex="1">
          <mxGeometry y="30" width="140" height="30" as="geometry" />
        </mxCell>
        <mxCell id="VadrGojm9dPPBqMYhkfN-76" value="Item 2" style="text;strokeColor=none;fillColor=none;align=left;verticalAlign=middle;spacingLeft=4;spacingRight=4;overflow=hidden;points=[[0,0.5],[1,0.5]];portConstraint=eastwest;rotatable=0;whiteSpace=wrap;html=1;" parent="VadrGojm9dPPBqMYhkfN-74" vertex="1">
          <mxGeometry y="60" width="140" height="30" as="geometry" />
        </mxCell>
        <mxCell id="VadrGojm9dPPBqMYhkfN-77" value="Item 3" style="text;strokeColor=none;fillColor=none;align=left;verticalAlign=middle;spacingLeft=4;spacingRight=4;overflow=hidden;points=[[0,0.5],[1,0.5]];portConstraint=eastwest;rotatable=0;whiteSpace=wrap;html=1;" parent="VadrGojm9dPPBqMYhkfN-74" vertex="1">
          <mxGeometry y="90" width="140" height="30" as="geometry" />
        </mxCell>
        <mxCell id="VadrGojm9dPPBqMYhkfN-78" value="&lt;b&gt;libOutlook&lt;/b&gt;" style="swimlane;fontStyle=0;childLayout=stackLayout;horizontal=1;startSize=30;horizontalStack=0;resizeParent=1;resizeParentMax=0;resizeLast=0;collapsible=1;marginBottom=0;whiteSpace=wrap;html=1;fillColor=#f5f5f5;fontColor=#333333;strokeColor=#666666;" parent="1" vertex="1">
          <mxGeometry x="810" y="670" width="140" height="120" as="geometry" />
        </mxCell>
        <mxCell id="VadrGojm9dPPBqMYhkfN-79" value="Create HO entry&amp;nbsp;" style="text;strokeColor=none;fillColor=none;align=left;verticalAlign=middle;spacingLeft=4;spacingRight=4;overflow=hidden;points=[[0,0.5],[1,0.5]];portConstraint=eastwest;rotatable=0;whiteSpace=wrap;html=1;" parent="VadrGojm9dPPBqMYhkfN-78" vertex="1">
          <mxGeometry y="30" width="140" height="30" as="geometry" />
        </mxCell>
        <mxCell id="VadrGojm9dPPBqMYhkfN-80" value="(Send Mail to Philipp)" style="text;strokeColor=none;fillColor=none;align=left;verticalAlign=middle;spacingLeft=4;spacingRight=4;overflow=hidden;points=[[0,0.5],[1,0.5]];portConstraint=eastwest;rotatable=0;whiteSpace=wrap;html=1;" parent="VadrGojm9dPPBqMYhkfN-78" vertex="1">
          <mxGeometry y="60" width="140" height="30" as="geometry" />
        </mxCell>
        <mxCell id="VadrGojm9dPPBqMYhkfN-81" value="Item 3" style="text;strokeColor=none;fillColor=none;align=left;verticalAlign=middle;spacingLeft=4;spacingRight=4;overflow=hidden;points=[[0,0.5],[1,0.5]];portConstraint=eastwest;rotatable=0;whiteSpace=wrap;html=1;" parent="VadrGojm9dPPBqMYhkfN-78" vertex="1">
          <mxGeometry y="90" width="140" height="30" as="geometry" />
        </mxCell>
        <mxCell id="VadrGojm9dPPBqMYhkfN-85" value="User Data" style="swimlane;whiteSpace=wrap;html=1;fillColor=#f5f5f5;fontColor=#333333;strokeColor=#666666;startSize=23;" parent="1" vertex="1">
          <mxGeometry x="860" y="50" width="270" height="120" as="geometry" />
        </mxCell>
        <mxCell id="VadrGojm9dPPBqMYhkfN-86" value="" style="shape=table;startSize=0;container=1;collapsible=0;childLayout=tableLayout;fontSize=16;" parent="VadrGojm9dPPBqMYhkfN-85" vertex="1">
          <mxGeometry x="7" y="40" width="256" height="40" as="geometry" />
        </mxCell>
        <mxCell id="VadrGojm9dPPBqMYhkfN-87" value="" style="shape=tableRow;horizontal=0;startSize=0;swimlaneHead=0;swimlaneBody=0;strokeColor=inherit;top=0;left=0;bottom=0;right=0;collapsible=0;dropTarget=0;fillColor=none;points=[[0,0.5],[1,0.5]];portConstraint=eastwest;fontSize=16;" parent="VadrGojm9dPPBqMYhkfN-86" vertex="1">
          <mxGeometry width="256" height="19" as="geometry" />
        </mxCell>
        <mxCell id="VadrGojm9dPPBqMYhkfN-88" value="&lt;font style=&quot;font-size: 10px;&quot;&gt;User SAP&lt;/font&gt;" style="shape=partialRectangle;html=1;whiteSpace=wrap;connectable=0;strokeColor=inherit;overflow=hidden;fillColor=none;top=0;left=0;bottom=0;right=0;pointerEvents=1;fontSize=16;" parent="VadrGojm9dPPBqMYhkfN-87" vertex="1">
          <mxGeometry width="54" height="19" as="geometry">
            <mxRectangle width="54" height="19" as="alternateBounds" />
          </mxGeometry>
        </mxCell>
        <mxCell id="VadrGojm9dPPBqMYhkfN-89" value="&lt;font style=&quot;font-size: 10px;&quot;&gt;PW SAP&lt;/font&gt;" style="shape=partialRectangle;html=1;whiteSpace=wrap;connectable=0;strokeColor=inherit;overflow=hidden;fillColor=none;top=0;left=0;bottom=0;right=0;pointerEvents=1;fontSize=16;" parent="VadrGojm9dPPBqMYhkfN-87" vertex="1">
          <mxGeometry x="54" width="71" height="19" as="geometry">
            <mxRectangle width="71" height="19" as="alternateBounds" />
          </mxGeometry>
        </mxCell>
        <mxCell id="VadrGojm9dPPBqMYhkfN-90" value="&lt;font style=&quot;font-size: 10px;&quot;&gt;Mail&lt;/font&gt;" style="shape=partialRectangle;html=1;whiteSpace=wrap;connectable=0;strokeColor=inherit;overflow=hidden;fillColor=none;top=0;left=0;bottom=0;right=0;pointerEvents=1;fontSize=16;" parent="VadrGojm9dPPBqMYhkfN-87" vertex="1">
          <mxGeometry x="125" width="40" height="19" as="geometry">
            <mxRectangle width="40" height="19" as="alternateBounds" />
          </mxGeometry>
        </mxCell>
        <mxCell id="VadrGojm9dPPBqMYhkfN-100" value="&lt;font size=&quot;1&quot;&gt;PW Pr Report&lt;/font&gt;" style="shape=partialRectangle;html=1;whiteSpace=wrap;connectable=0;strokeColor=inherit;overflow=hidden;fillColor=none;top=0;left=0;bottom=0;right=0;pointerEvents=1;fontSize=16;" parent="VadrGojm9dPPBqMYhkfN-87" vertex="1">
          <mxGeometry x="165" width="91" height="19" as="geometry">
            <mxRectangle width="91" height="19" as="alternateBounds" />
          </mxGeometry>
        </mxCell>
        <mxCell id="VadrGojm9dPPBqMYhkfN-91" style="shape=tableRow;horizontal=0;startSize=0;swimlaneHead=0;swimlaneBody=0;strokeColor=inherit;top=0;left=0;bottom=0;right=0;collapsible=0;dropTarget=0;fillColor=none;points=[[0,0.5],[1,0.5]];portConstraint=eastwest;fontSize=16;" parent="VadrGojm9dPPBqMYhkfN-86" vertex="1">
          <mxGeometry y="19" width="256" height="21" as="geometry" />
        </mxCell>
        <mxCell id="VadrGojm9dPPBqMYhkfN-92" style="shape=partialRectangle;html=1;whiteSpace=wrap;connectable=0;strokeColor=inherit;overflow=hidden;fillColor=none;top=0;left=0;bottom=0;right=0;pointerEvents=1;fontSize=16;" parent="VadrGojm9dPPBqMYhkfN-91" vertex="1">
          <mxGeometry width="54" height="21" as="geometry">
            <mxRectangle width="54" height="21" as="alternateBounds" />
          </mxGeometry>
        </mxCell>
        <mxCell id="VadrGojm9dPPBqMYhkfN-93" style="shape=partialRectangle;html=1;whiteSpace=wrap;connectable=0;strokeColor=inherit;overflow=hidden;fillColor=none;top=0;left=0;bottom=0;right=0;pointerEvents=1;fontSize=16;" parent="VadrGojm9dPPBqMYhkfN-91" vertex="1">
          <mxGeometry x="54" width="71" height="21" as="geometry">
            <mxRectangle width="71" height="21" as="alternateBounds" />
          </mxGeometry>
        </mxCell>
        <mxCell id="VadrGojm9dPPBqMYhkfN-94" style="shape=partialRectangle;html=1;whiteSpace=wrap;connectable=0;strokeColor=inherit;overflow=hidden;fillColor=none;top=0;left=0;bottom=0;right=0;pointerEvents=1;fontSize=16;" parent="VadrGojm9dPPBqMYhkfN-91" vertex="1">
          <mxGeometry x="125" width="40" height="21" as="geometry">
            <mxRectangle width="40" height="21" as="alternateBounds" />
          </mxGeometry>
        </mxCell>
        <mxCell id="VadrGojm9dPPBqMYhkfN-101" style="shape=partialRectangle;html=1;whiteSpace=wrap;connectable=0;strokeColor=inherit;overflow=hidden;fillColor=none;top=0;left=0;bottom=0;right=0;pointerEvents=1;fontSize=16;" parent="VadrGojm9dPPBqMYhkfN-91" vertex="1">
          <mxGeometry x="165" width="91" height="21" as="geometry">
            <mxRectangle width="91" height="21" as="alternateBounds" />
          </mxGeometry>
        </mxCell>
        <mxCell id="VadrGojm9dPPBqMYhkfN-99" value="" style="endArrow=none;html=1;rounded=0;exitX=0;exitY=0.5;exitDx=0;exitDy=0;entryX=1;entryY=0.5;entryDx=0;entryDy=0;" parent="1" source="VadrGojm9dPPBqMYhkfN-85" target="VadrGojm9dPPBqMYhkfN-3" edge="1">
          <mxGeometry width="50" height="50" relative="1" as="geometry">
            <mxPoint x="610" y="350" as="sourcePoint" />
            <mxPoint x="660" y="300" as="targetPoint" />
          </mxGeometry>
        </mxCell>
        <mxCell id="VadrGojm9dPPBqMYhkfN-104" value="" style="endArrow=none;html=1;rounded=0;exitX=0.5;exitY=1;exitDx=0;exitDy=0;entryX=0.5;entryY=0;entryDx=0;entryDy=0;" parent="1" source="VadrGojm9dPPBqMYhkfN-68" target="VadrGojm9dPPBqMYhkfN-74" edge="1">
          <mxGeometry width="50" height="50" relative="1" as="geometry">
            <mxPoint x="430" y="390" as="sourcePoint" />
            <mxPoint x="360" y="560" as="targetPoint" />
          </mxGeometry>
        </mxCell>
        <mxCell id="VadrGojm9dPPBqMYhkfN-105" value="" style="endArrow=none;html=1;rounded=0;exitX=0.5;exitY=1;exitDx=0;exitDy=0;entryX=0.5;entryY=0;entryDx=0;entryDy=0;" parent="1" source="VadrGojm9dPPBqMYhkfN-68" target="VadrGojm9dPPBqMYhkfN-78" edge="1">
          <mxGeometry width="50" height="50" relative="1" as="geometry">
            <mxPoint x="725" y="640" as="sourcePoint" />
            <mxPoint x="725" y="680" as="targetPoint" />
          </mxGeometry>
        </mxCell>
        <mxCell id="VadrGojm9dPPBqMYhkfN-106" value="" style="endArrow=none;html=1;rounded=0;entryX=0.5;entryY=0;entryDx=0;entryDy=0;exitX=0.486;exitY=1.002;exitDx=0;exitDy=0;exitPerimeter=0;" parent="1" source="VadrGojm9dPPBqMYhkfN-68" target="VadrGojm9dPPBqMYhkfN-70" edge="1">
          <mxGeometry width="50" height="50" relative="1" as="geometry">
            <mxPoint x="720" y="630" as="sourcePoint" />
            <mxPoint x="890" y="680" as="targetPoint" />
          </mxGeometry>
        </mxCell>
        <mxCell id="VadrGojm9dPPBqMYhkfN-107" value="" style="shape=flexArrow;endArrow=classic;html=1;rounded=0;" parent="1" edge="1">
          <mxGeometry width="50" height="50" relative="1" as="geometry">
            <mxPoint x="420" y="389.71" as="sourcePoint" />
            <mxPoint x="610" y="490" as="targetPoint" />
          </mxGeometry>
        </mxCell>
        <mxCell id="VadrGojm9dPPBqMYhkfN-108" value="" style="shape=flexArrow;endArrow=classic;html=1;rounded=0;" parent="1" edge="1">
          <mxGeometry width="50" height="50" relative="1" as="geometry">
            <mxPoint x="630" y="450" as="sourcePoint" />
            <mxPoint x="455" y="350" as="targetPoint" />
          </mxGeometry>
        </mxCell>
        <mxCell id="VadrGojm9dPPBqMYhkfN-109" value="&lt;font style=&quot;font-size: 10px;&quot;&gt;Shows Last 30 Days&lt;/font&gt;" style="text;html=1;strokeColor=none;fillColor=none;align=center;verticalAlign=middle;whiteSpace=wrap;rounded=0;" parent="1" vertex="1">
          <mxGeometry x="260" y="350" width="180" height="30" as="geometry" />
        </mxCell>
        <mxCell id="VadrGojm9dPPBqMYhkfN-110" value="&lt;span style=&quot;font-size: 10px;&quot;&gt;Communication between Clients and Database&lt;br&gt;&lt;/span&gt;" style="text;html=1;strokeColor=none;fillColor=none;align=center;verticalAlign=middle;whiteSpace=wrap;rounded=0;" parent="1" vertex="1">
          <mxGeometry x="635" y="600" width="155" height="30" as="geometry" />
        </mxCell>
        <mxCell id="AAEHcPAVtknq2-_UEymI-3" value="Tasks" style="swimlane;whiteSpace=wrap;html=1;fillColor=#f5f5f5;fontColor=#333333;strokeColor=#666666;" parent="1" vertex="1">
          <mxGeometry x="1340" y="330" width="280" height="120" as="geometry" />
        </mxCell>
        <mxCell id="AAEHcPAVtknq2-_UEymI-4" value="" style="shape=table;startSize=0;container=1;collapsible=0;childLayout=tableLayout;fontSize=16;" parent="AAEHcPAVtknq2-_UEymI-3" vertex="1">
          <mxGeometry x="8.75" y="40" width="231.75" height="55" as="geometry" />
        </mxCell>
        <mxCell id="AAEHcPAVtknq2-_UEymI-5" value="" style="shape=tableRow;horizontal=0;startSize=0;swimlaneHead=0;swimlaneBody=0;strokeColor=inherit;top=0;left=0;bottom=0;right=0;collapsible=0;dropTarget=0;fillColor=none;points=[[0,0.5],[1,0.5]];portConstraint=eastwest;fontSize=16;" parent="AAEHcPAVtknq2-_UEymI-4" vertex="1">
          <mxGeometry width="231.75" height="19" as="geometry" />
        </mxCell>
        <mxCell id="AAEHcPAVtknq2-_UEymI-7" value="&lt;font style=&quot;font-size: 10px;&quot;&gt;Start&lt;/font&gt;" style="shape=partialRectangle;html=1;whiteSpace=wrap;connectable=0;strokeColor=inherit;overflow=hidden;fillColor=none;top=0;left=0;bottom=0;right=0;pointerEvents=1;fontSize=16;" parent="AAEHcPAVtknq2-_UEymI-5" vertex="1">
          <mxGeometry width="37" height="19" as="geometry">
            <mxRectangle width="37" height="19" as="alternateBounds" />
          </mxGeometry>
        </mxCell>
        <mxCell id="AAEHcPAVtknq2-_UEymI-8" value="&lt;font style=&quot;font-size: 10px;&quot;&gt;End&lt;/font&gt;" style="shape=partialRectangle;html=1;whiteSpace=wrap;connectable=0;strokeColor=inherit;overflow=hidden;fillColor=none;top=0;left=0;bottom=0;right=0;pointerEvents=1;fontSize=16;" parent="AAEHcPAVtknq2-_UEymI-5" vertex="1">
          <mxGeometry x="37" width="36" height="19" as="geometry">
            <mxRectangle width="36" height="19" as="alternateBounds" />
          </mxGeometry>
        </mxCell>
        <mxCell id="AAEHcPAVtknq2-_UEymI-9" value="&lt;font style=&quot;font-size: 10px;&quot;&gt;Work Time&lt;/font&gt;" style="shape=partialRectangle;html=1;whiteSpace=wrap;connectable=0;strokeColor=inherit;overflow=hidden;fillColor=none;top=0;left=0;bottom=0;right=0;pointerEvents=1;fontSize=16;" parent="AAEHcPAVtknq2-_UEymI-5" vertex="1">
          <mxGeometry x="73" width="59" height="19" as="geometry">
            <mxRectangle width="59" height="19" as="alternateBounds" />
          </mxGeometry>
        </mxCell>
        <mxCell id="AAEHcPAVtknq2-_UEymI-10" value="&lt;font style=&quot;font-size: 10px;&quot;&gt;Comment&lt;/font&gt;" style="shape=partialRectangle;html=1;whiteSpace=wrap;connectable=0;strokeColor=inherit;overflow=hidden;fillColor=none;top=0;left=0;bottom=0;right=0;pointerEvents=1;fontSize=16;" parent="AAEHcPAVtknq2-_UEymI-5" vertex="1">
          <mxGeometry x="132" width="54" height="19" as="geometry">
            <mxRectangle width="54" height="19" as="alternateBounds" />
          </mxGeometry>
        </mxCell>
        <mxCell id="AAEHcPAVtknq2-_UEymI-11" value="&lt;font style=&quot;font-size: 10px;&quot;&gt;Project&lt;/font&gt;" style="shape=partialRectangle;html=1;whiteSpace=wrap;connectable=0;strokeColor=inherit;overflow=hidden;fillColor=none;top=0;left=0;bottom=0;right=0;pointerEvents=1;fontSize=16;" parent="AAEHcPAVtknq2-_UEymI-5" vertex="1">
          <mxGeometry x="186" width="46" height="19" as="geometry">
            <mxRectangle width="46" height="19" as="alternateBounds" />
          </mxGeometry>
        </mxCell>
        <mxCell id="AAEHcPAVtknq2-_UEymI-12" style="shape=tableRow;horizontal=0;startSize=0;swimlaneHead=0;swimlaneBody=0;strokeColor=inherit;top=0;left=0;bottom=0;right=0;collapsible=0;dropTarget=0;fillColor=none;points=[[0,0.5],[1,0.5]];portConstraint=eastwest;fontSize=16;" parent="AAEHcPAVtknq2-_UEymI-4" vertex="1">
          <mxGeometry y="19" width="231.75" height="17" as="geometry" />
        </mxCell>
        <mxCell id="AAEHcPAVtknq2-_UEymI-14" style="shape=partialRectangle;html=1;whiteSpace=wrap;connectable=0;strokeColor=inherit;overflow=hidden;fillColor=none;top=0;left=0;bottom=0;right=0;pointerEvents=1;fontSize=16;" parent="AAEHcPAVtknq2-_UEymI-12" vertex="1">
          <mxGeometry width="37" height="17" as="geometry">
            <mxRectangle width="37" height="17" as="alternateBounds" />
          </mxGeometry>
        </mxCell>
        <mxCell id="AAEHcPAVtknq2-_UEymI-15" style="shape=partialRectangle;html=1;whiteSpace=wrap;connectable=0;strokeColor=inherit;overflow=hidden;fillColor=none;top=0;left=0;bottom=0;right=0;pointerEvents=1;fontSize=16;" parent="AAEHcPAVtknq2-_UEymI-12" vertex="1">
          <mxGeometry x="37" width="36" height="17" as="geometry">
            <mxRectangle width="36" height="17" as="alternateBounds" />
          </mxGeometry>
        </mxCell>
        <mxCell id="AAEHcPAVtknq2-_UEymI-16" style="shape=partialRectangle;html=1;whiteSpace=wrap;connectable=0;strokeColor=inherit;overflow=hidden;fillColor=none;top=0;left=0;bottom=0;right=0;pointerEvents=1;fontSize=16;" parent="AAEHcPAVtknq2-_UEymI-12" vertex="1">
          <mxGeometry x="73" width="59" height="17" as="geometry">
            <mxRectangle width="59" height="17" as="alternateBounds" />
          </mxGeometry>
        </mxCell>
        <mxCell id="AAEHcPAVtknq2-_UEymI-17" style="shape=partialRectangle;html=1;whiteSpace=wrap;connectable=0;strokeColor=inherit;overflow=hidden;fillColor=none;top=0;left=0;bottom=0;right=0;pointerEvents=1;fontSize=16;" parent="AAEHcPAVtknq2-_UEymI-12" vertex="1">
          <mxGeometry x="132" width="54" height="17" as="geometry">
            <mxRectangle width="54" height="17" as="alternateBounds" />
          </mxGeometry>
        </mxCell>
        <mxCell id="AAEHcPAVtknq2-_UEymI-18" style="shape=partialRectangle;html=1;whiteSpace=wrap;connectable=0;strokeColor=inherit;overflow=hidden;fillColor=none;top=0;left=0;bottom=0;right=0;pointerEvents=1;fontSize=16;" parent="AAEHcPAVtknq2-_UEymI-12" vertex="1">
          <mxGeometry x="186" width="46" height="17" as="geometry">
            <mxRectangle width="46" height="17" as="alternateBounds" />
          </mxGeometry>
        </mxCell>
        <mxCell id="AAEHcPAVtknq2-_UEymI-19" style="shape=tableRow;horizontal=0;startSize=0;swimlaneHead=0;swimlaneBody=0;strokeColor=inherit;top=0;left=0;bottom=0;right=0;collapsible=0;dropTarget=0;fillColor=none;points=[[0,0.5],[1,0.5]];portConstraint=eastwest;fontSize=16;" parent="AAEHcPAVtknq2-_UEymI-4" vertex="1">
          <mxGeometry y="36" width="231.75" height="19" as="geometry" />
        </mxCell>
        <mxCell id="AAEHcPAVtknq2-_UEymI-21" style="shape=partialRectangle;html=1;whiteSpace=wrap;connectable=0;strokeColor=inherit;overflow=hidden;fillColor=none;top=0;left=0;bottom=0;right=0;pointerEvents=1;fontSize=16;" parent="AAEHcPAVtknq2-_UEymI-19" vertex="1">
          <mxGeometry width="37" height="19" as="geometry">
            <mxRectangle width="37" height="19" as="alternateBounds" />
          </mxGeometry>
        </mxCell>
        <mxCell id="AAEHcPAVtknq2-_UEymI-22" style="shape=partialRectangle;html=1;whiteSpace=wrap;connectable=0;strokeColor=inherit;overflow=hidden;fillColor=none;top=0;left=0;bottom=0;right=0;pointerEvents=1;fontSize=16;" parent="AAEHcPAVtknq2-_UEymI-19" vertex="1">
          <mxGeometry x="37" width="36" height="19" as="geometry">
            <mxRectangle width="36" height="19" as="alternateBounds" />
          </mxGeometry>
        </mxCell>
        <mxCell id="AAEHcPAVtknq2-_UEymI-23" style="shape=partialRectangle;html=1;whiteSpace=wrap;connectable=0;strokeColor=inherit;overflow=hidden;fillColor=none;top=0;left=0;bottom=0;right=0;pointerEvents=1;fontSize=16;" parent="AAEHcPAVtknq2-_UEymI-19" vertex="1">
          <mxGeometry x="73" width="59" height="19" as="geometry">
            <mxRectangle width="59" height="19" as="alternateBounds" />
          </mxGeometry>
        </mxCell>
        <mxCell id="AAEHcPAVtknq2-_UEymI-24" style="shape=partialRectangle;html=1;whiteSpace=wrap;connectable=0;strokeColor=inherit;overflow=hidden;fillColor=none;top=0;left=0;bottom=0;right=0;pointerEvents=1;fontSize=16;" parent="AAEHcPAVtknq2-_UEymI-19" vertex="1">
          <mxGeometry x="132" width="54" height="19" as="geometry">
            <mxRectangle width="54" height="19" as="alternateBounds" />
          </mxGeometry>
        </mxCell>
        <mxCell id="AAEHcPAVtknq2-_UEymI-25" style="shape=partialRectangle;html=1;whiteSpace=wrap;connectable=0;strokeColor=inherit;overflow=hidden;fillColor=none;top=0;left=0;bottom=0;right=0;pointerEvents=1;fontSize=16;" parent="AAEHcPAVtknq2-_UEymI-19" vertex="1">
          <mxGeometry x="186" width="46" height="19" as="geometry">
            <mxRectangle width="46" height="19" as="alternateBounds" />
          </mxGeometry>
        </mxCell>
        <mxCell id="AAEHcPAVtknq2-_UEymI-26" value="" style="endArrow=none;startArrow=none;html=1;rounded=0;exitX=0;exitY=0.5;exitDx=0;exitDy=0;startFill=0;endFill=0;entryX=1;entryY=0.5;entryDx=0;entryDy=0;" parent="1" source="AAEHcPAVtknq2-_UEymI-3" target="VadrGojm9dPPBqMYhkfN-7" edge="1">
          <mxGeometry width="50" height="50" relative="1" as="geometry">
            <mxPoint x="805" y="290" as="sourcePoint" />
            <mxPoint x="860" y="280" as="targetPoint" />
          </mxGeometry>
        </mxCell>
      </root>
    </mxGraphModel>
  </diagram>
</mxfile>
